<svg version="1.0" xmlns="http://www.w3.org/2000/svg"
 width="500.000000pt" height="500.000000pt" viewBox="0 0 500.000000 500.000000"
 preserveAspectRatio="xMidYMid meet">

<g transform="translate(0.000000,500.000000) scale(0.100000,-0.100000)"
fill="#ffffff" stroke="none">
<path d="M1552 4030 c-116 -31 -205 -84 -303 -180 -69 -69 -94 -101 -127 -170
-58 -117 -75 -192 -74 -325 0 -210 57 -387 253 -787 75 -155 151 -366 188
-528 32 -142 42 -288 39 -590 -3 -281 -3 -286 21 -337 43 -96 145 -163 246
-163 54 0 129 28 171 64 82 70 126 193 179 496 47 270 108 382 240 442 68 31
171 31 237 1 139 -64 215 -203 253 -466 46 -313 102 -445 215 -502 139 -71
297 -19 365 119 37 76 44 167 32 401 -22 427 27 645 260 1140 148 314 194 452
214 637 16 151 -6 270 -77 410 -81 160 -252 293 -441 342 -35 9 -102 16 -156
16 -157 0 -293 -54 -441 -175 -154 -127 -284 -192 -363 -181 -71 9 -174 70
-378 222 -74 55 -161 98 -240 119 -81 21 -222 19 -313 -5z m341 -139 c33 -13
87 -43 120 -66 318 -224 364 -247 492 -247 128 0 197 32 405 186 118 88 176
120 257 141 252 66 537 -101 631 -369 20 -58 25 -90 25 -176 0 -168 -40 -299
-188 -620 -191 -415 -260 -623 -285 -857 -6 -58 -10 -232 -8 -402 3 -289 2
-300 -18 -328 -30 -41 -87 -67 -131 -58 -84 16 -129 103 -163 316 -48 312 -98
455 -191 547 -96 96 -208 142 -345 142 -182 0 -327 -94 -409 -265 -43 -89 -68
-183 -95 -362 -25 -166 -52 -264 -89 -318 -66 -98 -201 -77 -231 36 -7 25 -8
134 -4 317 5 196 3 307 -5 377 -31 251 -101 459 -298 879 -93 200 -118 265
-149 391 -27 111 -32 246 -13 337 37 179 184 336 382 409 73 27 228 22 310
-10z"/>
<path d="M2074 3346 c-71 -31 -86 -110 -33 -171 27 -30 37 -35 77 -35 118 0
166 141 68 201 -36 22 -69 23 -112 5z"/>
<path d="M2810 3330 c-50 -50 -52 -110 -6 -156 29 -29 41 -34 81 -34 40 0 52
5 81 34 26 26 34 42 34 71 0 29 -8 45 -34 71 -30 30 -40 34 -85 34 -38 0 -56
-5 -71 -20z"/>
<path d="M1586 2968 l-97 -93 11 -36 c5 -19 21 -46 35 -59 l24 -23 59 52 c33
28 63 51 67 51 4 0 63 -54 130 -119 207 -202 388 -285 642 -298 134 -7 233 7
353 49 152 54 261 127 420 284 l96 94 57 -55 c31 -30 61 -55 66 -55 27 0 76
81 65 108 -4 9 -49 57 -100 106 l-93 89 -57 -64 c-112 -125 -230 -232 -324
-294 -159 -104 -260 -135 -437 -136 -274 0 -485 116 -736 409 -39 45 -74 82
-77 82 -4 0 -50 -42 -104 -92z"/>
</g>
</svg>